<svg xmlns="http://www.w3.org/2000/svg" xmlnsXlink="http://www.w3.org/1999/xlink" width="100" zoomAndPan="magnify"
    viewBox="0 0 375 374.999991" height="100" preserveAspectRatio="xMidYMid meet" version="1.0">
    <defs>
        <g/>
    </defs>
    <path fill="#000000"
        d="M 187.5 0 C 239.273438 0 286.152344 20.988281 320.082031 54.917969 C 354.011719 88.847656 375 135.726562 375 187.5 C 375 239.273438 354.011719 286.152344 320.082031 320.082031 C 286.152344 354.011719 239.273438 375 187.5 375 C 135.722656 375 88.847656 354.011719 54.917969 320.082031 C 20.988281 286.152344 0 239.277344 0 187.5 C 0 135.722656 20.988281 88.847656 54.917969 54.917969 C 88.847656 20.988281 135.722656 0 187.5 0 Z M 316.753906 58.246094 C 283.675781 25.167969 237.976562 4.707031 187.5 4.707031 C 137.023438 4.707031 91.324219 25.167969 58.246094 58.246094 C 25.167969 91.324219 4.707031 137.023438 4.707031 187.5 C 4.707031 237.976562 25.167969 283.675781 58.246094 316.753906 C 91.324219 349.832031 137.023438 370.292969 187.5 370.292969 C 237.976562 370.292969 283.675781 349.832031 316.753906 316.753906 C 349.832031 283.675781 370.292969 237.976562 370.292969 187.5 C 370.292969 137.023438 349.832031 91.324219 316.753906 58.246094 Z M 316.753906 58.246094 "
        fillOpacity="1" fillRule="nonzero"/>
    <path fill="#000000"
        d="M 326.648438 126.460938 C 326.132812 125.273438 326.675781 123.890625 327.863281 123.371094 C 329.050781 122.855469 330.433594 123.398438 330.953125 124.585938 C 335.238281 134.347656 338.5625 144.628906 340.796875 155.3125 C 342.976562 165.71875 344.121094 176.484375 344.121094 187.5 C 344.121094 199.746094 342.710938 211.671875 340.042969 223.125 C 337.300781 234.90625 333.222656 246.183594 327.980469 256.792969 C 327.40625 257.953125 325.996094 258.433594 324.835938 257.859375 C 323.671875 257.285156 323.195312 255.875 323.769531 254.714844 C 328.847656 244.4375 332.800781 233.5 335.464844 222.058594 C 338.046875 210.96875 339.414062 199.398438 339.414062 187.5 C 339.414062 176.773438 338.304688 166.328125 336.203125 156.265625 C 334.035156 145.90625 330.808594 135.929688 326.648438 126.460938 Z M 326.648438 126.460938 "
        fillOpacity="1" fillRule="nonzero"/>
    <path fill="#000000"
        d="M 51.230469 254.714844 C 51.804688 255.875 51.328125 257.285156 50.164062 257.859375 C 49.003906 258.433594 47.59375 257.953125 47.019531 256.792969 C 41.777344 246.183594 37.699219 234.90625 34.957031 223.125 C 32.289062 211.671875 30.878906 199.746094 30.878906 187.5 C 30.878906 176.488281 32.023438 165.71875 34.203125 155.3125 C 36.4375 144.628906 39.761719 134.347656 44.046875 124.585938 C 44.566406 123.398438 45.949219 122.855469 47.136719 123.371094 C 48.324219 123.890625 48.867188 125.273438 48.351562 126.460938 C 44.191406 135.933594 40.964844 145.90625 38.796875 156.265625 C 36.695312 166.328125 35.585938 176.773438 35.585938 187.5 C 35.585938 199.398438 36.953125 210.96875 39.535156 222.058594 C 42.199219 233.5 46.152344 244.441406 51.230469 254.714844 Z M 51.230469 254.714844 "
        fillOpacity="1" fillRule="nonzero"/>
    <path fill="#000000"
        d="M 187.5 61.757812 C 222.222656 61.757812 253.65625 75.832031 276.414062 98.585938 C 299.167969 121.339844 313.242188 152.777344 313.242188 187.5 C 313.242188 222.222656 299.167969 253.65625 276.414062 276.414062 C 253.660156 299.167969 222.222656 313.242188 187.5 313.242188 C 152.777344 313.242188 121.339844 299.167969 98.585938 276.414062 C 75.832031 253.65625 61.757812 222.222656 61.757812 187.5 C 61.757812 152.777344 75.832031 121.339844 98.585938 98.585938 C 121.339844 75.832031 152.777344 61.757812 187.5 61.757812 Z M 273.085938 101.914062 C 251.183594 80.011719 220.921875 66.464844 187.5 66.464844 C 154.078125 66.464844 123.816406 80.011719 101.914062 101.914062 C 80.011719 123.816406 66.464844 154.074219 66.464844 187.5 C 66.464844 220.921875 80.011719 251.183594 101.914062 273.085938 C 123.816406 294.988281 154.078125 308.535156 187.5 308.535156 C 220.921875 308.535156 251.183594 294.988281 273.085938 273.085938 C 294.988281 251.183594 308.535156 220.921875 308.535156 187.5 C 308.535156 154.074219 294.988281 123.816406 273.085938 101.914062 Z M 273.085938 101.914062 "
        fillOpacity="1" fillRule="nonzero"/>
    <g fill="#000000" fillOpacity="1">
        <g transform="translate(121.288891, 247.499984)">
            <g>
                <path
                    d="M 85.519531 -5.050781 C 84.074219 -5.050781 82.992188 -3.96875 82.992188 -2.527344 C 82.992188 -1.082031 84.074219 0.179688 85.519531 0.179688 L 125.210938 0.179688 C 126.472656 0.179688 127.738281 -1.082031 127.738281 -2.527344 C 127.738281 -3.96875 126.472656 -5.050781 125.210938 -5.050781 C 121.601562 -5.050781 117.09375 -8.117188 115.648438 -11.90625 L 68.558594 -124.308594 L 68.378906 -124.671875 C 68.199219 -124.851562 68.199219 -125.03125 68.019531 -125.210938 C 68.019531 -125.210938 68.019531 -125.210938 67.839844 -125.390625 C 67.839844 -125.574219 67.65625 -125.574219 67.476562 -125.753906 C 67.296875 -125.753906 67.296875 -125.753906 67.296875 -125.753906 C 67.296875 -125.933594 67.117188 -125.933594 66.9375 -125.933594 C 66.9375 -125.933594 66.9375 -126.113281 66.753906 -126.113281 C 66.753906 -126.113281 66.753906 -126.113281 66.574219 -126.113281 C 66.394531 -126.113281 66.214844 -126.292969 66.035156 -126.292969 C 65.671875 -126.113281 65.492188 -126.113281 65.3125 -126.113281 C 65.3125 -126.113281 65.132812 -126.113281 65.132812 -126.113281 C 64.953125 -125.933594 64.769531 -125.933594 64.589844 -125.753906 C 64.410156 -125.574219 64.230469 -125.574219 64.050781 -125.390625 C 64.050781 -125.390625 64.050781 -125.210938 64.050781 -125.210938 C 63.867188 -125.03125 63.6875 -124.851562 63.6875 -124.671875 L 59.898438 -115.648438 L 52.140625 -97.425781 L 16.417969 -11.90625 C 14.792969 -8.117188 10.464844 -5.050781 6.855469 -5.050781 C 5.414062 -5.050781 4.332031 -3.96875 4.332031 -2.527344 C 4.332031 -1.082031 5.414062 0.179688 6.855469 0.179688 L 23.636719 0.179688 C 25.078125 0.179688 26.160156 -1.082031 26.160156 -2.527344 C 26.160156 -3.96875 25.078125 -5.050781 23.636719 -5.050781 C 22.734375 -5.050781 21.652344 -5.230469 20.929688 -6.132812 C 20.386719 -7.035156 20.386719 -8.300781 21.109375 -9.921875 L 23.453125 -15.515625 C 32.476562 -34.640625 50.878906 -47.269531 71.625 -48.894531 L 88.046875 -9.921875 C 88.765625 -8.300781 88.765625 -7.035156 88.226562 -6.132812 C 87.503906 -5.230469 86.421875 -5.050781 85.519531 -5.050781 Z M 95.621094 -5.050781 L 94 -9.019531 L 92.734375 -11.90625 L 57.375 -96.523438 L 66.035156 -116.914062 L 112.941406 -5.050781 Z M 32.296875 -36.625 L 54.667969 -89.847656 L 69.640625 -53.945312 C 55.390625 -52.503906 42.398438 -46.1875 32.296875 -36.625 Z M 32.296875 -36.625 "/>
            </g>
        </g>
    </g>
    <g fill="#000000" fillOpacity="1">
        <g transform="translate(67.569568, 93.088774)">
            <g>
                <path
                    d="M 3.902344 -12.640625 L 0.519531 -9.628906 L -2.023438 -15.890625 Z M 13.449219 -11.972656 L -3.882812 -20.511719 L -6.378906 -18.289062 L 0.0976562 -0.0859375 L 3.261719 -2.90625 L 1.828125 -6.457031 L 6.921875 -10.992188 L 10.28125 -9.15625 Z M 13.449219 -11.972656 "/>
            </g>
        </g>
    </g>
    <g fill="#000000" fillOpacity="1">
        <g transform="translate(90.828784, 73.922601)">
            <g>
                <path
                    d="M 1.28125 -8.355469 L 1.304688 -8.371094 L 8.316406 -5.21875 L 12.554688 -7.878906 L 4.707031 -10.722656 C 6.328125 -12.394531 6.804688 -15.054688 5.195312 -17.621094 C 3.390625 -20.496094 -0.0429688 -21.109375 -2.492188 -19.570312 L -4.835938 -18.101562 L -5.660156 -17.582031 L -8.179688 -16 L 1.335938 -0.839844 L 4.683594 -2.9375 Z M -1.398438 -16.589844 C -0.417969 -17.207031 1.140625 -17 2.007812 -15.621094 C 2.917969 -14.171875 2.394531 -12.722656 1.414062 -12.109375 L -0.371094 -10.988281 L -3.183594 -15.46875 Z M -1.398438 -16.589844 "/>
            </g>
        </g>
    </g>
    <g fill="#000000" fillOpacity="1">
        <g transform="translate(113.687186, 60.529289)">
            <g>
                <path
                    d="M 11.109375 -11.132812 C 11.027344 -9.394531 9.78125 -7.714844 8.074219 -7.015625 C 5.398438 -5.914062 2.3125 -7.324219 1.15625 -10.148438 C 0.00390625 -12.949219 1.199219 -16.144531 3.875 -17.242188 C 5.558594 -17.933594 7.59375 -17.6875 8.882812 -16.480469 L 12.953125 -18.152344 C 10.441406 -21.078125 6.25 -22.203125 2.476562 -20.652344 C -2.222656 -18.722656 -4.476562 -13.328125 -2.546875 -8.628906 C -0.617188 -3.929688 4.777344 -1.675781 9.476562 -3.605469 C 13.25 -5.15625 15.453125 -8.933594 15.175781 -12.804688 Z M 11.109375 -11.132812 "/>
            </g>
        </g>
    </g>
    <g fill="#000000" fillOpacity="1">
        <g transform="translate(143.215706, 49.668519)">
            <g>
                <path
                    d="M 7.421875 -19.898438 L 8.917969 -12.921875 L 3.148438 -11.6875 L 1.65625 -18.660156 L -2.207031 -17.835938 L 1.542969 -0.332031 L 5.40625 -1.15625 L 3.898438 -8.183594 L 9.667969 -9.421875 L 11.171875 -2.394531 L 15.289062 -3.277344 L 11.539062 -20.78125 Z M 7.421875 -19.898438 "/>
            </g>
        </g>
    </g>
    <g fill="#000000" fillOpacity="1">
        <g transform="translate(172.210525, 44.724803)">
            <g>
                <path
                    d="M 5.515625 -0.371094 L 4.3125 -18.234375 L 0.371094 -17.964844 L 1.574219 -0.105469 Z M 5.515625 -0.371094 "/>
            </g>
        </g>
    </g>
    <g fill="#000000" fillOpacity="1">
        <g transform="translate(191.512381, 43.913751)">
            <g>
                <path
                    d="M 19.363281 -16.425781 L 15.109375 -16.761719 L 10.617188 -7.03125 L 9.425781 -4.296875 L 8.675781 -7.183594 L 5.792969 -17.5 L 1.542969 -17.835938 L 7.347656 0.582031 L 10.734375 0.847656 Z M 19.363281 -16.425781 "/>
            </g>
        </g>
    </g>
    <g fill="#000000" fillOpacity="1">
        <g transform="translate(221.463136, 47.46299)">
            <g>
                <path
                    d="M 12.460938 -0.597656 L 6.226562 -2.144531 L 7.097656 -5.644531 L 13.074219 -4.160156 L 13.9375 -7.636719 L 7.957031 -9.117188 L 8.8125 -12.570312 L 15.046875 -11.023438 L 15.910156 -14.496094 L 5.84375 -16.992188 L 1.53125 0.378906 L 11.601562 2.878906 Z M 12.460938 -0.597656 "/>
            </g>
        </g>
    </g>
    <g fill="#000000" fillOpacity="1">
        <g transform="translate(246.261355, 54.680235)">
            <g>
                <path
                    d="M 5.140625 2.03125 L 11.722656 -14.613281 L 8.050781 -16.066406 L 1.46875 0.582031 Z M 5.140625 2.03125 "/>
            </g>
        </g>
    </g>
    <g fill="#000000" fillOpacity="1">
        <g transform="translate(264.050079, 62.27022)">
            <g>
                <path
                    d="M 19.335938 -9.554688 L 14.195312 -0.578125 C 12.964844 1.570312 11.632812 2.414062 9.277344 1.066406 C 6.949219 -0.269531 6.980469 -1.859375 8.210938 -4.003906 L 13.351562 -12.984375 L 9.925781 -14.945312 L 4.496094 -5.464844 C 2.125 -1.332031 3.273438 2.179688 7.316406 4.492188 C 11.359375 6.808594 14.964844 6.023438 17.332031 1.886719 L 22.761719 -7.59375 Z M 19.335938 -9.554688 "/>
            </g>
        </g>
    </g>
    <g fill="#000000" fillOpacity="1">
        <g transform="translate(288.799603, 77.369404)">
            <g>
                <path
                    d="M 18.113281 15.597656 L 27.160156 -0.230469 L 23.609375 -3.289062 L 12.601562 3.800781 L 17.964844 -8.152344 L 14.414062 -11.210938 L 0.101562 0.0859375 L 3.390625 2.921875 L 13.042969 -5.058594 L 7.640625 6.578125 L 10.570312 9.105469 L 21.28125 2.035156 L 14.820312 12.765625 Z M 18.113281 15.597656 "/>
            </g>
        </g>
    </g>
</svg>